<svg xmlns="http://www.w3.org/2000/svg" x="0px" y="0px"
width="64" height="64"
viewBox="0 0 172 172"
style=" fill:#000000;"><g fill="none" fill-rule="nonzero" stroke="none" stroke-width="1" stroke-linecap="butt" stroke-linejoin="miter" stroke-miterlimit="10" stroke-dasharray="" stroke-dashoffset="0" font-family="none" font-weight="none" font-size="none" text-anchor="none" style="mix-blend-mode: normal"><path d="M0,172v-172h172v172z" fill="none"></path><g fill="#000000"><path d="M86,110.1875c-2.28437,0 -4.03125,1.74688 -4.03125,4.03125v22.0375c-8.33125,2.01563 -14.24375,9.80938 -13.30312,18.8125c0.80625,8.0625 7.39063,14.64688 15.31875,15.45313c10.48125,1.20938 19.48438,-7.12187 19.48438,-17.33437c0,-8.19688 -5.77813,-15.18437 -13.4375,-16.93125v-22.0375c0,-2.28437 -1.74688,-4.03125 -4.03125,-4.03125zM95.40625,153.1875c0,5.24062 -4.16562,9.40625 -9.40625,9.40625c-5.24063,0 -9.40625,-4.16563 -9.40625,-9.40625c0,-5.24062 4.16563,-9.40625 9.40625,-9.40625c5.24063,0 9.40625,4.16563 9.40625,9.40625zM119.72813,142.4375c1.075,7.65938 7.39063,13.70625 15.05,14.64687c11.42188,1.47813 20.9625,-8.19687 19.61875,-19.61875c-0.94063,-7.92813 -7.525,-14.24375 -15.45312,-15.05c-4.3,-0.40312 -8.46562,0.67188 -11.69063,2.95625l-9.54062,-8.73437c-1.47812,-1.34375 -2.6875,-2.82187 -3.7625,-4.43438c-0.80625,-1.20938 -2.01562,-1.88125 -3.35937,-1.88125v0c-3.225,0 -5.10625,3.62813 -3.35937,6.31563c1.47812,2.15 3.09062,4.3 5.10625,6.04688l9.675,8.73438c-2.01562,3.09062 -2.82188,6.85312 -2.28438,11.01875zM137.0625,130.34375c5.24062,0 9.40625,4.16563 9.40625,9.40625c0,5.24062 -4.16563,9.40625 -9.40625,9.40625c-5.24062,0 -9.40625,-4.16563 -9.40625,-9.40625c0,-5.24062 4.16563,-9.40625 9.40625,-9.40625zM64.90313,116.50313c1.74687,-2.6875 -0.13438,-6.31562 -3.35938,-6.31562v0c-1.34375,0 -2.6875,0.67188 -3.35937,1.88125c-1.075,1.6125 -2.28438,3.09062 -3.7625,4.43437l-9.54062,8.73438c-3.225,-2.28437 -7.39062,-3.35937 -11.69063,-2.95625c-7.92813,0.80625 -14.37812,7.12187 -15.45312,15.05c-1.47813,11.42188 8.19687,20.9625 19.61875,19.61875c7.65938,-0.94062 13.84062,-6.9875 15.05,-14.64687c0.5375,-4.03125 -0.26875,-7.92813 -2.01562,-11.15312l9.675,-8.73438c1.74687,-1.74687 3.35938,-3.7625 4.8375,-5.9125zM34.9375,149.15625c-5.24062,0 -9.40625,-4.16563 -9.40625,-9.40625c0,-5.24062 4.16563,-9.40625 9.40625,-9.40625c5.24063,0 9.40625,4.16563 9.40625,9.40625c0,5.24062 -4.16562,9.40625 -9.40625,9.40625zM85.19375,1.34375c-24.05312,0.40312 -43.5375,20.15625 -43.5375,44.34375v2.6875h-1.88125c-16.79687,0 -31.04062,13.03438 -31.7125,29.69688c-0.67187,17.60312 13.4375,32.11562 30.90625,32.11562h17.60312c1.74688,0 3.225,-1.075 3.7625,-2.6875c0.94062,-2.41875 1.34375,-5.10625 1.34375,-7.79375v-20.15625c0,-2.15 1.6125,-4.16562 3.7625,-4.3c2.28437,-0.13438 4.3,1.74688 4.3,4.03125v20.425c0,2.01563 -0.13437,3.89688 -0.5375,5.77813c-0.5375,2.41875 1.47813,4.70313 3.89687,4.70313h4.8375c2.28437,0 4.03125,-1.74688 4.03125,-4.03125v-40.04375c0,-2.15 1.6125,-4.16562 3.7625,-4.3c2.28437,-0.13437 4.3,1.74687 4.3,4.03125v40.3125c0,2.28437 1.74688,4.03125 4.03125,4.03125h4.70313c2.55313,0 4.43438,-2.28437 3.89688,-4.70312c-0.40313,-1.88125 -0.5375,-3.7625 -0.5375,-5.77813v-20.15625c0,-2.15 1.6125,-4.16562 3.7625,-4.3c2.28437,-0.13438 4.3,1.74688 4.3,4.03125v20.425c0,2.6875 0.5375,5.375 1.34375,7.79375c0.5375,1.6125 2.15,2.6875 3.7625,2.6875h17.7375c17.46875,0 31.57813,-14.5125 30.90625,-32.11562c-0.67187,-16.6625 -14.91563,-29.69688 -31.7125,-29.69688h-1.88125v-1.74687c0,-24.85938 -20.29062,-45.6875 -45.15,-45.28437z"></path></g></g></svg>