<?xml version="1.0" encoding="UTF-8"?>
<svg xmlns="http://www.w3.org/2000/svg" id="Layer_1" data-name="Layer 1" viewBox="0 0 512 512" width="512" height="512"><path d="M380.269,273.746c0,.243.44.243.44,0a.22.22,0,0,0-.44,0Z"/><path d="M132.224,213.747a60,60,0,1,0,60,60A60.067,60.067,0,0,0,132.224,213.747ZM172,285.249c0,2.762-2.541,4.751-5.3,4.751H149v18.221A5.057,5.057,0,0,1,143.729,313H120.724A4.587,4.587,0,0,1,116,308.221V290H97.749A4.584,4.584,0,0,1,93,285.249v-23A5.008,5.008,0,0,1,97.749,257H116V239.271c0-2.761,1.961-5.271,4.722-5.271h23.005A5.478,5.478,0,0,1,149,239.271V257h17.7a5.479,5.479,0,0,1,5.3,5.245Z"/><path d="M228.036,217.5a8.544,8.544,0,0,0,8.722,8.5H256V209H236.758A8.544,8.544,0,0,0,228.036,217.5Z"/><path d="M380.489,237.447A12.885,12.885,0,1,0,367.6,224.562,12.9,12.9,0,0,0,380.489,237.447Z"/><path d="M240.376,138h69.113c.186,0,.329.073.471.081a8.432,8.432,0,0,1,7.8,8.869,50.416,50.416,0,0,0,2.941,20.18c.057.124.1.254.146.384a39.771,39.771,0,0,0,10.874,15.48,43.989,43.989,0,0,0,7.057,5.065,88.666,88.666,0,0,1-.548-18.176,5.175,5.175,0,0,1-.07-.709,5.044,5.044,0,0,1,.311-1.7c.838-6.961,2.88-13.929,7.093-19.32C350.8,141.461,358.406,138,368.176,138h17.669A15.11,15.11,0,0,0,401,122.652V31.479A15.222,15.222,0,0,0,385.845,16H240.4A15.426,15.426,0,0,0,225,31.48v91.173A15.276,15.276,0,0,0,240.376,138Zm95.717-85.488a5,5,0,0,1,7.184-6.956l30.065,31.049a5,5,0,0,1,0,6.956L343.277,114.61a5,5,0,0,1-7.184-6.956l26.7-27.571Zm-38.868,70.064,22.1-87.436a5,5,0,1,1,9.695,2.45l-22.1,87.436a5,5,0,1,1-9.695-2.45ZM252.9,76.605l30.065-31.049a5,5,0,1,1,7.183,6.956l-26.7,27.571,26.7,27.571a5,5,0,1,1-7.183,6.956L252.9,83.561A5,5,0,0,1,252.9,76.605Z"/><path d="M429.673,286.631a12.885,12.885,0,1,0-12.884-12.885A12.9,12.9,0,0,0,429.673,286.631Z"/><path d="M131.389,383.322A109.916,109.916,0,0,1,39.6,333.281L25.255,430.128A56.758,56.758,0,0,0,131.184,465.7l52.206-95.352a109.755,109.755,0,0,1-33.21,11.36A110.905,110.905,0,0,1,131.389,383.322Z"/><path d="M139,262.245V244H126v18.245c0,2.761-2.517,4.755-5.278,4.755H103v13h17.724A5.461,5.461,0,0,1,126,285.249V303h13V285.249A5,5,0,0,1,143.729,280H162V267H143.727A4.569,4.569,0,0,1,139,262.245Z"/><path d="M285.787,209H266v17h19.787a8.5,8.5,0,1,0,0-17Z"/><path d="M393.374,322.931a12.885,12.885,0,1,0-12.885,12.885A12.9,12.9,0,0,0,393.374,322.931Z"/><path d="M331.3,260.861a12.885,12.885,0,1,0,12.885,12.885A12.9,12.9,0,0,0,331.3,260.861Z"/><path d="M472.791,332.322a111.191,111.191,0,0,1-14.725,18.347,108.631,108.631,0,0,1-77.577,32.415.459.459,0,0,0-.083,0,109.272,109.272,0,0,1-51.813-13.093l51.778,96.54a56.957,56.957,0,0,0,66.421,26.962c27.092-8.317,43.574-35.432,40.1-65.959Z"/><path d="M380.484,373a99.5,99.5,0,0,0,0-199H348.006a84.684,84.684,0,0,0,2.189,21.14,5.178,5.178,0,0,1-1.356,4.87,5,5,0,0,1-4.8,1.255A52.024,52.024,0,0,1,312.883,174H131.516a99.612,99.612,0,1,0,81.406,157.042A51.717,51.717,0,0,1,255.033,309h2.224a51.665,51.665,0,0,1,42.033,21.879A99.542,99.542,0,0,0,380.41,373Zm49.189-122.139a22.885,22.885,0,1,1-22.884,22.885A22.912,22.912,0,0,1,429.673,250.861Zm-49.184-49.184A22.885,22.885,0,1,1,357.6,224.562,22.911,22.911,0,0,1,380.489,201.677Zm9.78,72.069a9.78,9.78,0,1,1-9.78-9.779A9.791,9.791,0,0,1,390.269,273.746ZM126,187h5a5,5,0,0,1,0,10h-5a5,5,0,0,1,0-10Zm6.224,156.746a70,70,0,1,1,70-70A70.079,70.079,0,0,1,132.224,343.746ZM150,197a5,5,0,0,1,0-10h66a5,5,0,0,1,0,10Zm135.787,39H236.758a18.5,18.5,0,1,1,0-37h49.029a18.5,18.5,0,1,1,0,37ZM331.3,296.631a22.885,22.885,0,1,1,22.885-22.885A22.911,22.911,0,0,1,331.3,296.631Zm26.3,26.3a22.885,22.885,0,1,1,22.885,22.885A22.911,22.911,0,0,1,357.6,322.931Z"/></svg>
