<svg id="Capa_1" enable-background="new 0 0 512 512" height="512" viewBox="0 0 512 512" width="512" xmlns="http://www.w3.org/2000/svg"><g><path d="m437.02 74.98c-48.353-48.351-112.64-74.98-181.02-74.98-123.454 0-229.32 87.974-251.727 209.182-1.004 5.431 2.585 10.646 8.016 11.65 5.438 1.014 10.647-2.584 11.651-8.016 1.844-9.973 4.311-19.697 7.338-29.146h449.37c7.359 22.806 11.352 47.108 11.352 72.33s-3.993 49.524-11.353 72.329h-449.369c-3.027-9.449-5.494-19.172-7.338-29.146-1.004-5.433-6.22-9.027-11.651-8.016-5.431 1.004-9.02 6.22-8.016 11.65 22.407 121.209 128.273 209.183 251.727 209.183 68.38 0 132.667-26.629 181.02-74.98 48.351-48.353 74.98-112.64 74.98-181.02s-26.629-132.667-74.98-181.02zm-191.02 20.418c-22.8-.942-45.04-5.113-66.239-12.341 18.455-35.39 41.904-57.307 66.239-62.06zm20-74.401c24.334 4.754 47.783 26.669 66.24 62.062-21.198 7.228-43.437 11.398-66.24 12.34zm-104.983 54.76c-11.469-5.054-22.566-11.051-33.208-17.96 20.427-13.206 42.968-23.319 66.924-29.743-12.54 12.332-23.845 28.321-33.716 47.703zm84.983 39.66v48.254h-93.835c4.706-22.704 11.086-43.611 19.037-62.396 23.887 8.381 49.017 13.16 74.798 14.142zm20-.001c25.783-.982 50.915-5.759 74.8-14.139 7.949 18.783 14.33 39.689 19.035 62.393h-93.835zm84.983-39.66c-9.862-19.362-21.153-35.337-33.676-47.664 23.971 6.455 46.446 16.592 66.774 29.778-10.608 6.88-21.669 12.849-33.098 17.886zm-240.574-5.563c13.403 9.292 27.513 17.219 42.19 23.715-8.847 20.998-15.826 44.392-20.83 69.763h-93.072c15.765-37.191 40.677-69.182 71.712-93.478zm269.823 93.478c-5.004-25.37-11.983-48.764-20.829-69.759 14.63-6.476 28.695-14.376 42.059-23.629 31.13 24.437 55.985 56.518 71.719 93.389h-92.949zm-114.232 252.873c23.335.784 45.573 4.704 66.598 11.714-18.514 35.805-42.093 57.966-66.598 62.746zm-20-19.908c-25.746 1.098-50.822 5.981-74.645 14.457-8.013-18.874-14.445-39.905-19.187-62.764h93.832zm0 20.024v74.343c-24.244-4.742-47.63-26.535-66.063-61.716 21.129-7.314 43.309-11.574 66.063-12.627zm-84.768 20.015c9.826 19.192 21.06 35.036 33.504 47.272-23.724-6.361-46.061-16.338-66.331-29.356 10.522-6.877 21.491-12.857 32.827-17.916zm190.141-1.193c11.556 5.062 22.708 11.115 33.429 18.171-20.518 13.417-43.24 23.723-67.497 30.254 12.694-12.492 24.118-28.725 34.068-48.425zm-85.373-38.945v-48.208h93.834c-4.645 22.409-10.921 43.073-18.727 61.671-23.668-8.143-48.754-12.646-75.107-13.463zm-227.303-48.208h93.074c5.046 25.557 12.088 49.102 21.015 70.211-14.544 6.515-28.527 14.438-41.811 23.707-31.298-24.348-56.417-56.502-72.278-93.918zm363.378 92.901c-13.484-9.469-27.608-17.456-42.335-23.939 8.686-20.793 15.552-43.919 20.492-68.962h92.95c-15.631 36.628-40.264 68.526-71.107 92.901z"/><circle cx="10" cy="256" r="10"/><path d="m218.572 298.504c1.674 4.713 6.144 7.865 11.14 7.865h.08c5.028-.034 9.495-3.256 11.113-8.017.03-.087.058-.174.085-.262l15.01-48.493 14.943 48.505c.041.135.086.268.133.402 1.674 4.713 6.145 7.865 11.141 7.865h.078c5.028-.033 9.494-3.254 11.114-8.014.142-.415.255-.84.341-1.27l15.793-79.355c1.078-5.417-2.44-10.682-7.855-11.76-5.416-1.076-10.682 2.438-11.76 7.855l-9.427 47.368-14.944-48.509c-1.457-4.729-6.15-7.674-11.045-6.944-4.204.633-7.467 3.826-8.303 7.852l-14.736 47.608-9.398-47.512c-1.072-5.417-6.331-8.945-11.751-7.869-5.418 1.071-8.941 6.332-7.87 11.75l15.731 79.527c.095.479.224.949.387 1.408z"/><path d="m358.495 298.504c1.674 4.713 6.145 7.865 11.141 7.865h.078c5.028-.033 9.494-3.254 11.114-8.014.03-.088.059-.176.086-.265l15.01-48.493 14.942 48.504c.042.137.087.272.135.407 1.676 4.711 6.146 7.86 11.14 7.86h.081c5.026-.034 9.492-3.255 11.111-8.014.142-.415.255-.84.341-1.27l15.793-79.355c1.078-5.417-2.439-10.682-7.855-11.76-5.419-1.076-10.682 2.438-11.76 7.855l-9.427 47.369-14.944-48.51c-1.457-4.729-6.169-7.683-11.045-6.944-4.204.633-7.468 3.826-8.303 7.852l-14.737 47.609-9.398-47.513c-1.071-5.419-6.332-8.944-11.75-7.869-5.418 1.071-8.941 6.332-7.869 11.75l15.732 79.527c.092.48.222.95.384 1.409z"/><path d="m78.648 298.504c1.674 4.713 6.144 7.865 11.14 7.865h.08c5.028-.034 9.495-3.256 11.113-8.017.029-.087.058-.174.085-.262l15.01-48.494 14.942 48.505c.042.136.087.271.134.404 1.684 4.738 6.165 7.937 11.221 7.863 5.027-.034 9.493-3.256 11.111-8.017.141-.414.254-.838.34-1.267l15.793-79.355c1.078-5.417-2.439-10.682-7.855-11.76-5.418-1.07-10.682 2.438-11.76 7.855l-9.427 47.368-14.944-48.509c-1.456-4.729-6.148-7.674-11.045-6.944-4.204.633-7.467 3.826-8.303 7.852l-14.736 47.608-9.398-47.512c-1.072-5.417-6.333-8.945-11.751-7.869-5.418 1.071-8.941 6.332-7.87 11.75l15.731 79.527c.097.48.226.95.389 1.409z"/></g></svg>