<svg id="bold" enable-background="new 0 0 24 24" height="512" viewBox="0 0 24 24" width="512" xmlns="http://www.w3.org/2000/svg"><g><g><path d="m18.103 4.222c-1.49-1.452-3.798-2.292-6.129-2.219-2.93.078-4.019 1.205-4.423 2.045-1.521.322-3.551 1.576-3.551 4.814v3.599c0 1.238.237 2.444.709 3.595.153.364.528 1.064.545 1.093 1.396 2.399 3.289 4.851 6.746 4.851 3.367 0 5.199-2.285 6.69-4.779.043-.077.426-.762.606-1.185.468-1.148.704-2.356.704-3.59v-3.598c0-1.817-.656-3.417-1.897-4.626zm-.653 11.046c-.141.329-.49.951-.49.951-1.397 2.334-2.714 3.781-4.96 3.781-2.301 0-3.67-1.542-5.001-3.827-.004-.006-.319-.59-.443-.885-.369-.899-.556-1.85-.556-2.827v-.719l.588-.263c.094-.042 1.738-.794 2.595-2.336.916 1.274 2.546 2.804 5.098 2.804.281 0 .539-.157.667-.407.096-.186.107-.399.041-.59.479.353 1.014.595 1.579.595.305 0 .432-.006.562-.012.148-.008.32-.016.87-.012v.925c0 .974-.188 1.929-.55 2.822z"/></g></g><g><g><g><path d="m12.001 18c-1.003 0-1.943-.402-2.65-1.131-.288-.298-.28-.772.018-1.061s.772-.28 1.061.017c.841.87 2.301.872 3.144 0 .289-.297.765-.304 1.061-.017.298.288.306.763.018 1.061-.71.729-1.65 1.131-2.652 1.131z"/></g></g></g><g><g><g><path d="m23 8c-.552 0-1-.448-1-1v-4c0-.551-.449-1-1-1h-4c-.552 0-1-.448-1-1s.448-1 1-1h4c1.654 0 3 1.346 3 3v4c0 .552-.448 1-1 1z"/></g></g></g><g><g><g><path d="m1 8c-.552 0-1-.448-1-1v-4c0-1.654 1.346-3 3-3h4c.552 0 1 .448 1 1s-.448 1-1 1h-4c-.551 0-1 .449-1 1v4c0 .552-.448 1-1 1z"/></g></g></g><g><g><g><path d="m21 24h-4c-.552 0-1-.448-1-1s.448-1 1-1h4c.551 0 1-.449 1-1v-4c0-.552.448-1 1-1s1 .448 1 1v4c0 1.654-1.346 3-3 3z"/></g></g></g><g><g><g><path d="m7 24h-4c-1.654 0-3-1.346-3-3v-4c0-.552.448-1 1-1s1 .448 1 1v4c0 .551.449 1 1 1h4c.552 0 1 .448 1 1s-.448 1-1 1z"/></g></g></g></svg>